<?xml version="1.0" encoding="UTF-8"?>
<svg width="800" height="600" viewBox="0 0 800 600" xmlns="http://www.w3.org/2000/svg">
  <rect width="800" height="600" fill="#1e293b"/>
  <g transform="translate(100, 150) scale(0.6)">
    <!-- Car body -->
    <path d="M100,200 C100,150 200,150 300,150 L600,150 C700,150 800,200 800,250 L800,300 C800,350 750,350 700,350 L200,350 C150,350 100,350 100,300 Z" fill="#334155"/>
    
    <!-- Windows -->
    <path d="M250,150 L250,100 L650,100 L650,150 Z" fill="#94a3b8"/>
    
    <!-- Wheels -->
    <circle cx="250" cy="350" r="60" fill="#0f172a"/>
    <circle cx="250" cy="350" r="40" fill="#475569"/>
    <circle cx="650" cy="350" r="60" fill="#0f172a"/>
    <circle cx="650" cy="350" r="40" fill="#475569"/>
    
    <!-- Headlights -->
    <rect x="120" y="200" width="40" height="30" rx="10" fill="#fbbf24"/>
    <rect x="740" y="200" width="40" height="30" rx="10" fill="#f43f5e"/>
    
    <!-- Grill -->
    <rect x="150" y="250" width="100" height="20" rx="5" fill="#64748b"/>
  </g>
</svg>